<svg xmlns="http://www.w3.org/2000/svg" x="0px" y="0px"
width="96" height="96"
viewBox="0 0 172 172"
style=" fill:#000000;"><g fill="none" fill-rule="nonzero" stroke="none" stroke-width="1" stroke-linecap="butt" stroke-linejoin="miter" stroke-miterlimit="10" stroke-dasharray="" stroke-dashoffset="0" font-family="none" font-weight="none" font-size="none" text-anchor="none" style="mix-blend-mode: normal"><path d="M0,172v-172h172v172z" fill="none"></path><g fill="#d7930e"><path d="M21.5,21.5v5.375v123.625h55.65015l-12.65015,21.5h107.5l-21.5,-36.5542v-113.9458zM32.25,32.25h107.5v21.5h-107.5zM43,37.625c-2.967,0 -5.375,2.408 -5.375,5.375c0,2.967 2.408,5.375 5.375,5.375c2.967,0 5.375,-2.408 5.375,-5.375c0,-2.967 -2.408,-5.375 -5.375,-5.375zM59.125,37.625c-2.967,0 -5.375,2.408 -5.375,5.375c0,2.967 2.408,5.375 5.375,5.375c2.967,0 5.375,-2.408 5.375,-5.375c0,-2.967 -2.408,-5.375 -5.375,-5.375zM69.875,37.625v10.75h59.125v-10.75zM32.25,64.5h107.5v52.6792l-21.5,-36.5542l-34.78003,59.125h-51.21997zM118.25,101.83105l34.95849,59.41895h-69.91699zM112.875,118.25v21.5h10.75l-0.16797,-21.5zM112.875,145.125v10.75h10.75v-10.75z"></path></g></g></svg>