<svg xmlns="http://www.w3.org/2000/svg" x="0px" y="0px"
width="100" height="100"
viewBox="0 0 172 172"
style=" fill:#000000;"><g fill="none" fill-rule="nonzero" stroke="none" stroke-width="1" stroke-linecap="butt" stroke-linejoin="miter" stroke-miterlimit="10" stroke-dasharray="" stroke-dashoffset="0" font-family="none" font-weight="none" font-size="none" text-anchor="none" style="mix-blend-mode: normal"><path d="M0,172v-172h172v172z" fill="none"></path><g fill="#d7930e"><g id="surface1"><path d="M144.92344,76.56688c0.02688,-0.65844 0.05375,-1.30344 0.05375,-1.935c0,-24.94 -20.30406,-45.23063 -45.24406,-45.23063c-17.22688,0 -32.96219,9.95719 -40.51406,25.22219c-3.91031,-2.58 -8.47906,-3.9775 -13.27625,-3.9775c-12.73875,0 -23.20656,9.93031 -24.05313,22.4675c-13.0075,4.73 -21.88969,17.21344 -21.88969,31.22875c0,18.32875 14.92906,33.25781 33.27125,33.25781h108.10469c16.89094,0 30.62406,-13.73312 30.62406,-30.62406c0,-15.68156 -11.85187,-28.64875 -27.07656,-30.40906zM106.64,75.68c3.80281,0 6.88,3.07719 6.88,6.88c0,3.80281 -3.07719,6.88 -6.88,6.88c-3.80281,0 -6.88,-3.07719 -6.88,-6.88c0,-3.80281 3.07719,-6.88 6.88,-6.88zM65.36,75.68c3.80281,0 6.88,3.07719 6.88,6.88c0,3.80281 -3.07719,6.88 -6.88,6.88c-3.80281,0 -6.88,-3.07719 -6.88,-6.88c0,-3.80281 3.07719,-6.88 6.88,-6.88zM119.20406,119.56688c-0.645,0.56437 -1.45125,0.83312 -2.24406,0.83312c-0.95406,0 -1.92156,-0.40312 -2.60687,-1.19594c-0.09406,-0.1075 -11.19344,-12.56406 -28.35313,-12.56406c-17.28062,0 -28.24562,12.44313 -28.35312,12.56406c-1.24969,1.43781 -3.42656,1.59906 -4.85094,0.36281c-1.43781,-1.24969 -1.59906,-3.42656 -0.36281,-4.86438c0.5375,-0.60469 13.18219,-14.9425 33.56687,-14.9425c20.38469,0 33.02938,14.33781 33.56688,14.95594c1.23625,1.42438 1.075,3.60125 -0.36281,4.85094z"></path></g></g></g></svg>